<?xml version="1.0" encoding="UTF-8" standalone="no"?>
<!DOCTYPE svg PUBLIC "-//W3C//DTD SVG 1.1//EN" "http://www.w3.org/Graphics/SVG/1.1/DTD/svg11.dtd">
<svg width="100%" height="100%" viewBox="0 0 600 600" version="1.1" xmlns="http://www.w3.org/2000/svg" xmlns:xlink="http://www.w3.org/1999/xlink" xml:space="preserve" xmlns:serif="http://www.serif.com/" style="fill-rule:evenodd;clip-rule:evenodd;stroke-linejoin:round;stroke-miterlimit:2;">
    <g>
        <path d="M390.5,127.5C391.833,128.167 391.833,128.167 390.5,127.5Z" style="fill:rgb(14,15,14);fill-opacity:0;"/>
    </g>
    <g>
        <path d="M412.5,127.5C413.833,128.167 413.833,128.167 412.5,127.5Z" style="fill:rgb(15,16,15);fill-opacity:0;"/>
    </g>
    <g>
        <path d="M505.5,127.5C506.833,128.167 506.833,128.167 505.5,127.5Z" style="fill:rgb(17,18,17);fill-opacity:0;"/>
    </g>
    <g>
        <path d="M510.5,127.5C511.833,128.167 511.833,128.167 510.5,127.5Z" style="fill:rgb(17,18,17);fill-opacity:0;"/>
    </g>
    <g>
        <path d="M409.5,128.5C410.833,129.167 410.833,129.167 409.5,128.5Z" style="fill:rgb(15,16,15);fill-opacity:0;"/>
    </g>
    <g>
        <path d="M384.5,129.5C385.833,130.167 385.833,130.167 384.5,129.5Z" style="fill:rgb(14,15,14);fill-opacity:0;"/>
    </g>
    <g>
        <path d="M400.5,129.5C401.833,130.167 401.833,130.167 400.5,129.5Z" style="fill:rgb(14,15,14);fill-opacity:0;"/>
    </g>
    <g>
        <path d="M485.5,129.5C486.833,130.167 486.833,130.167 485.5,129.5Z" style="fill:rgb(15,16,15);fill-opacity:0;"/>
    </g>
    <g>
        <path d="M501.5,129.5C502.833,130.167 502.833,130.167 501.5,129.5Z" style="fill:rgb(17,18,17);fill-opacity:0;"/>
    </g>
    <g>
        <path d="M393.5,130.5C394.833,131.167 394.833,131.167 393.5,130.5Z" style="fill:rgb(15,16,15);fill-opacity:0;"/>
    </g>
    <g>
        <path d="M395.5,130.5C396.833,131.167 396.833,131.167 395.5,130.5Z" style="fill:rgb(14,15,14);fill-opacity:0;"/>
    </g>
    <g>
        <path d="M481.5,130.5C482.833,131.167 482.833,131.167 481.5,130.5Z" style="fill:rgb(15,16,15);fill-opacity:0;"/>
    </g>
    <g>
        <path d="M493.5,130.5C494.833,131.167 494.833,131.167 493.5,130.5Z" style="fill:rgb(16,17,16);fill-opacity:0;"/>
    </g>
    <g>
        <path d="M501.5,130.5C500.833,131.167 500.833,131.167 501.5,130.5Z" style="fill:rgb(17,18,17);fill-opacity:0;"/>
    </g>
    <g>
        <path d="M510.5,130.5C511.833,131.167 511.833,131.167 510.5,130.5Z" style="fill:rgb(18,19,18);fill-opacity:0;"/>
    </g>
    <g>
        <path d="M506.5,131.5C507.833,132.167 507.833,132.167 506.5,131.5Z" style="fill:rgb(19,20,19);fill-opacity:0;"/>
    </g>
    <g>
        <path d="M484.5,132.5C485.833,133.167 485.833,133.167 484.5,132.5Z" style="fill:rgb(33,34,33);fill-opacity:0;"/>
    </g>
    <g>
        <path d="M504.5,132.5C505.833,133.167 505.833,133.167 504.5,132.5Z" style="fill:rgb(9,10,9);fill-opacity:0;"/>
    </g>
    <g>
        <path d="M390.5,162.5C378.389,167.499 365.389,169.999 351.5,170C346.548,176.45 342.214,183.283 338.5,190.5C337.733,191.172 325.896,213.279 325.5,216.5C316.755,235.028 309.755,255.028 304.5,276.5C301.899,283.56 299.899,290.893 298.5,298.5C307.599,300.554 316.266,302.888 324.5,305.5C328.266,299.213 331.266,292.546 333.5,285.5C335.233,284.992 335.566,284.159 334.5,283C336.962,279.8 338.962,276.3 340.5,272.5C354.648,243.325 373.982,216.825 398.5,193C410.527,183.649 423.527,175.815 437.5,169.5C448.411,155.563 461.744,144.729 477.5,137C486.245,133.973 495.245,132.807 504.5,133.5C522.145,138.306 534.312,149.306 541,166.5C542.438,173.082 543.938,179.582 545.5,186C546.102,222.905 533.102,255.071 506.5,282.5C499.641,288.087 492.641,293.421 485.5,298.5C481.628,300.597 477.961,302.931 474.5,305.5C447.065,317.551 418.732,323.551 389.5,323.5C387.127,336.447 385.127,349.447 383.5,362.5C382.337,374.861 382.337,387.528 383.5,400.5C383.983,406.706 385.15,413.04 387,419.5C387.86,422.633 389.36,425.3 391.5,427.5C396.217,437.508 404.217,442.175 415.5,441.5C426.914,441.376 436.414,437.043 444,428.5C452.933,417.182 460.1,404.348 465.5,390C467.829,389.49 469.829,390.156 471.5,392C469.414,396.004 467.748,400.171 466.5,404.5C460.547,417.734 451.88,429.567 440.5,440C417.687,453.903 398.354,450.237 382.5,429C376.001,416.452 371.668,402.952 369.5,388.5C368.927,373.275 368.26,358.109 367.5,343C369.248,336.272 370.581,329.439 371.5,322.5C361.271,320.121 350.604,318.121 339.5,316.5C338.833,318.833 338.167,321.167 337.5,323.5C331.266,336.249 324.6,349.249 317.5,362.5C316.11,363.899 315.11,365.566 314.5,367.5C313.662,367.842 313.328,368.508 313.5,369.5C309.18,376.13 304.847,382.797 300.5,389.5C296.171,394.508 292.171,399.841 288.5,405.5C290.485,416.639 295.485,426.139 303.5,434C304.094,434.464 304.761,434.631 305.5,434.5C307,436.179 308.833,437.512 311,438.5C311.494,440.134 311.66,441.801 311.5,443.5C306.116,443.141 301.449,441.141 297.5,437.5C296.833,436.167 295.833,435.167 294.5,434.5C288.257,428.369 283.757,421.035 281,412.5C277.484,416.241 273.984,419.908 270.5,423.5C266.81,426.199 263.143,428.865 259.5,431.5C258.833,431.5 256.842,432.662 256.5,433.5C253.22,435.14 249.886,436.807 246.5,438.5C245.702,438.957 244.183,439.863 243.5,439.5C221.822,448.838 200.322,450.838 179,445.5C174.749,442.958 170.582,440.291 166.5,437.5C150.579,454.877 130.412,464.877 106,467.5C99.863,465.88 93.696,464.213 87.5,462.5C81.885,459.35 76.552,455.683 71.5,451.5C69.59,448.541 67.256,446.041 64.5,444C64.833,443.667 65.167,443.333 65.5,443C64.303,440.985 62.97,439.151 61.5,437.5C60.204,433.261 58.538,429.261 56.5,425.5C49.378,385.78 61.712,353.78 93.5,329.5C100.408,325.547 107.408,321.88 114.5,318.5C120.793,316.904 127.126,315.404 133.5,314C134.667,313.5 140.006,312.291 141.5,312.5C153.058,310.678 156.891,311.291 166,313.5C166.333,313.167 173.217,314.812 176.5,315.5C192.754,304.077 210.754,296.744 230.5,293.5C232.779,289.939 234.779,286.273 236.5,282.5C241.071,275.031 245.404,267.364 249.5,259.5C254.238,251.699 259.238,244.033 264.5,236.5C266.488,233.872 268.488,231.205 270.5,228.5C273.488,224.538 276.488,220.538 279.5,216.5C280.833,215.833 281.833,214.833 282.5,213.5C288.5,206.833 294.833,200.5 301.5,194.5C302.833,193.833 303.833,192.833 304.5,191.5C306.23,190.974 307.564,189.974 308.5,188.5C318.354,181.068 329.02,174.902 340.5,170C334.513,169.152 305.953,171.791 302.5,171.5C297.523,172.381 292.856,173.048 288.5,173.5C274.497,173.86 247.333,180.833 247,180.5C242.248,182.13 237.748,184.13 233.5,186.5C231.847,186.66 230.514,187.326 229.5,188.5C224.746,190.539 220.746,193.539 217.5,197.5C215.127,199.579 210.743,208.92 211.5,212.5C212.844,218.855 214.177,225.189 215.5,231.5C212.956,231.896 210.445,231.229 209,228.5C200.939,209.345 205.773,195.178 223.5,184C236.054,177.257 249.72,172.59 264.5,170C292.151,165.485 319.818,163.152 347.5,163C353.103,156.224 359.437,150.391 366.5,145.5C374.983,139.674 382.15,137.341 392,134.5C398.164,133.64 404.331,133.975 409.5,135C412.902,138.719 413.402,142.886 411,147.5C404.643,154.004 397.809,159.004 390.5,162.5ZM405.5,143.5C404.167,145.5 402.5,147.167 400.5,148.5C391.844,155.254 382.344,159.588 372,161.5C367.17,162.459 362.336,162.959 357.5,163C359.312,160.14 361.646,157.973 364.5,156.5C371.483,149.333 379.816,144.166 389.5,141C394.455,139.782 399.455,139.449 404.5,140C406.495,140.924 406.828,142.09 405.5,143.5ZM530.5,160.5C536.14,171.181 538.807,182.681 538.5,195C538.473,209.65 535.473,223.484 529.5,236.5C527.388,242.211 524.721,247.544 521.5,252.5C520.189,255.135 518.522,257.469 516.5,259.5C516.573,261.027 515.906,262.027 514.5,262.5C502.791,278.368 488.125,290.868 470.5,300C465.425,302.078 460.425,304.244 455.5,306.5C454.893,306.376 454.56,306.043 454.5,305.5C452.709,307.711 450.542,308.377 448,307.5C445.72,309.037 443.22,310.203 440.5,311C424.314,314.735 407.647,316.402 390.5,316C394.003,299.148 398.336,282.648 403.5,266.5C406.189,256.004 418.833,221.333 418.5,221C419.109,218.49 422.957,212.298 422.5,211.5C427.698,199.686 434.031,188.686 441.5,178.5C442.433,175.63 444.1,173.296 446.5,171.5C449.383,165.945 453.383,161.278 458.5,157.5C459.945,155.937 464.938,152.435 464.5,152.5C466.147,150.674 468.147,149.34 470.5,148.5C485.587,137.731 501.587,136.898 518.5,146C523.46,150.119 527.46,154.952 530.5,160.5ZM392.5,245.5C383.891,267.874 377.058,291.208 372,315.5C362.12,314.158 352.287,312.325 342.5,310C352.686,288.453 362.686,266.786 372.5,245C373.044,244.283 373.608,242.783 374.397,242.5C381.516,227.422 390.619,214.755 401.5,202.5C408.914,194.394 416.914,187.561 425.5,182C426.332,181.312 426.998,181.479 427.5,182.5C413.466,202.239 401.799,223.239 392.5,245.5ZM330.5,182.5C306.655,216.937 289.822,254.603 280,295.5C270.624,293.776 261.124,292.61 251.5,292C253.739,287.785 256.072,283.618 258.5,279.5C258.328,278.508 258.662,277.842 259.5,277.5C261.805,271.897 264.472,266.564 267.5,261.5C268.215,259.245 269.548,257.412 271.5,256C271.167,255.667 270.833,255.333 270.5,255C276.908,242.421 284.575,230.254 293.5,218.5C295.111,214.949 310.833,198.333 310.5,198C311.949,196.898 313.282,195.731 314.5,194.5C316.219,191.781 318.553,189.781 321.5,188.5C323.951,185.723 326.951,183.723 330.5,182.5ZM276.5,400.5C265.51,417.537 250.843,429.537 232.5,436.5C231.07,437.537 229.403,438.204 227.5,438.5C214.027,442.59 200.027,443.09 185.5,440C180.125,438.432 175.125,436.099 170.5,433C176.118,426.549 181.118,420.216 185.5,414C189.399,408.344 193.399,402.844 197.5,397.5C198.383,394.296 200.05,391.629 202.5,389.5C202.66,387.847 203.326,386.514 204.5,385.5C205.34,383.147 206.674,381.147 208.5,379.5C209.361,375.592 211.361,371.925 214.5,368.5C225.758,345.902 236.925,323.235 248,300.5C257.788,299.328 267.621,299.495 277.5,301C278.199,307.186 275.355,320.228 275.5,321C272.253,341.756 271.753,362.589 274,383.5C274.632,388.966 275.799,394.3 277.5,399.5C277.376,400.107 277.043,400.44 276.5,400.5ZM226.5,301.5C226.539,304.089 225.539,306.089 223.5,307.5C210.412,338.23 196.245,368.563 181,398.5C176.642,406.568 171.809,414.235 166.5,421.5C165.984,423.2 164.984,424.533 163.5,425.5C156.041,417.325 151.541,407.658 150,396.5C147.505,378.103 151.005,361.103 160.5,345.5C161.68,342.46 167.263,333.965 168.5,332.5C168.833,331.5 177.962,323.453 179.5,323.5C182.176,323.939 184.509,324.939 186.5,326.5C192.102,328.804 197.436,331.47 202.5,334.5C205.061,332.323 205.061,330.156 202.5,328C197.108,323.636 191.108,320.302 184.5,318C187.059,316.223 189.726,314.723 192.5,313.5C194.534,312.546 196.534,311.546 198.5,310.5C199.514,309.326 200.847,308.66 202.5,308.5C210.325,304.884 218.325,302.551 226.5,301.5ZM316.5,324.5C314.406,329.685 312.072,334.685 309.5,339.5C308.397,343.497 306.731,347.164 304.5,350.5C297.873,362.578 292.04,374.245 287,385.5C286.647,379.84 286.481,374.34 286.5,369C287.371,358.966 288.704,349.132 290.5,339.5C291.02,331.601 292.353,324.268 294.5,317.5C294.611,312.941 295.611,308.608 297.5,304.5C305.869,306.417 314.202,308.917 322.5,312C320.386,316.209 318.386,320.376 316.5,324.5ZM168.5,323.5C143.442,350.53 136.942,381.53 149,416.5C151.726,421.893 155.226,426.726 159.5,431C158.002,433.664 156.002,435.83 153.5,437.5C137.957,456.319 118.623,462.986 95.5,457.5C85.458,455.185 77.458,449.518 71.5,440.5C69.165,437.469 67.165,434.135 65.5,430.5C65.624,429.893 65.957,429.56 66.5,429.5C65.272,428.975 64.438,427.642 64,425.5C62.13,418.446 60.963,411.279 60.5,404C61.621,399.572 62.288,395.405 62.5,391.5C64.198,377.513 69.031,365.18 77,354.5C77.333,354.833 77.667,355.167 78,355.5C78.006,352.736 79.173,350.736 81.5,349.5C83.5,346.833 85.833,344.5 88.5,342.5C95.31,335.672 103.643,330.172 113.5,326C125.426,321.736 137.48,319.491 149.66,319.265C156.895,319.131 164.175,319.709 171.5,321C170.627,322.045 169.627,322.878 168.5,323.5Z" style="fill:rgb(230,168,45);fill-opacity:0.88;"/>
    </g>
    <g>
        <path d="M369.5,137.5C370.833,138.167 370.833,138.167 369.5,137.5Z" style="fill:rgb(14,15,14);fill-opacity:0;"/>
    </g>
    <g>
        <path d="M414.5,139.5C415.833,140.167 415.833,140.167 414.5,139.5Z" style="fill:rgb(5,6,5);fill-opacity:0;"/>
    </g>
    <g>
        <path d="M467.5,139.5C468.833,140.167 468.833,140.167 467.5,139.5Z" style="fill:rgb(7,8,7);fill-opacity:0;"/>
    </g>
    <g>
        <path d="M456.5,143.5C457.833,144.167 457.833,144.167 456.5,143.5Z" style="fill:rgb(14,15,14);fill-opacity:0;"/>
    </g>
    <g>
        <path d="M533.5,143.5C534.833,144.167 534.833,144.167 533.5,143.5Z" style="fill:rgb(20,21,20);fill-opacity:0;"/>
    </g>
    <g>
        <path d="M366.5,145.5C365.833,144.167 365.833,144.167 366.5,145.5Z" style="fill:rgb(4,5,4);fill-opacity:0;"/>
    </g>
    <g>
        <path d="M531.5,144.5C532.833,145.167 532.833,145.167 531.5,144.5Z" style="fill:rgb(20,21,20);fill-opacity:0;"/>
    </g>
    <g>
        <path d="M413.5,145.5C414.833,146.167 414.833,146.167 413.5,145.5Z" style="fill:rgb(5,6,5);fill-opacity:0;"/>
    </g>
    <g>
        <path d="M359.5,147.5C360.833,148.167 360.833,148.167 359.5,147.5Z" style="fill:rgb(24,25,24);fill-opacity:0;"/>
    </g>
    <g>
        <path d="M411.5,148.5C412.833,149.167 412.833,149.167 411.5,148.5Z" style="fill:rgb(2,3,2);fill-opacity:0;"/>
    </g>
    <g>
        <path d="M455.5,148.5C456.833,149.167 456.833,149.167 455.5,148.5Z" style="fill:rgb(12,13,12);fill-opacity:0;"/>
    </g>
    <g>
        <path d="M534.5,148.5C535.833,149.167 535.833,149.167 534.5,148.5Z" style="fill:rgb(21,22,21);fill-opacity:0;"/>
    </g>
    <g>
        <path d="M536.5,151.5C537.833,152.167 537.833,152.167 536.5,151.5Z" style="fill:rgb(21,22,21);fill-opacity:0;"/>
    </g>
    <g>
        <path d="M449.5,153.5C450.833,154.167 450.833,154.167 449.5,153.5Z" style="fill:rgb(4,5,4);fill-opacity:0;"/>
    </g>
    <g>
        <path d="M537.5,153.5C538.833,154.167 538.833,154.167 537.5,153.5Z" style="fill:rgb(27,28,27);fill-opacity:0;"/>
    </g>
    <g>
        <path d="M538.5,156.5C539.833,157.167 539.833,157.167 538.5,156.5Z" style="fill:rgb(10,11,10);fill-opacity:0;"/>
    </g>
    <g>
        <path d="M290.5,159.5C291.833,160.167 291.833,160.167 290.5,159.5Z" style="fill:rgb(11,12,11);fill-opacity:0;"/>
    </g>
    <g>
        <path d="M298.5,159.5C299.833,160.167 299.833,160.167 298.5,159.5Z" style="fill:rgb(12,13,12);fill-opacity:0;"/>
    </g>
    <g>
        <path d="M311.5,159.5C312.833,160.167 312.833,160.167 311.5,159.5Z" style="fill:rgb(11,12,11);fill-opacity:0;"/>
    </g>
    <g>
        <path d="M345.5,159.5C346.833,160.167 346.833,160.167 345.5,159.5Z" style="fill:rgb(11,12,11);fill-opacity:0;"/>
    </g>
    <g>
        <path d="M398.5,159.5C399.833,160.167 399.833,160.167 398.5,159.5Z" style="fill:rgb(3,4,3);fill-opacity:0;"/>
    </g>
    <g>
        <path d="M542.5,159.5C543.833,160.167 543.833,160.167 542.5,159.5Z" style="fill:rgb(19,20,19);fill-opacity:0;"/>
    </g>
    <g>
        <path d="M293.5,160.5C294.833,161.167 294.833,161.167 293.5,160.5Z" style="fill:rgb(12,13,12);fill-opacity:0;"/>
    </g>
    <g>
        <path d="M279.5,162.5C279.897,161.475 280.563,161.308 281.5,162C280.906,162.464 280.239,162.631 279.5,162.5Z" style="fill:rgb(12,13,12);fill-opacity:0;"/>
    </g>
    <g>
        <path d="M297.5,161.5C298.833,162.167 298.833,162.167 297.5,161.5Z" style="fill:rgb(12,13,12);fill-opacity:0;"/>
    </g>
    <g>
        <path d="M320.5,161.5C321.833,162.167 321.833,162.167 320.5,161.5Z" style="fill:rgb(12,13,12);fill-opacity:0;"/>
    </g>
    <g>
        <path d="M397.5,161.5C398.833,162.167 398.833,162.167 397.5,161.5Z" style="fill:rgb(1,2,1);fill-opacity:0;"/>
    </g>
    <g>
        <path d="M284.5,162.5C285.833,163.167 285.833,163.167 284.5,162.5Z" style="fill:rgb(11,12,11);fill-opacity:0;"/>
    </g>
    <g>
        <path d="M390.5,162.5C391.833,163.167 391.833,163.167 390.5,162.5Z" style="fill:rgb(4,5,4);fill-opacity:0;"/>
    </g>
    <g>
        <path d="M302.5,163.5C303.833,164.167 303.833,164.167 302.5,163.5Z" style="fill:rgb(8,9,8);fill-opacity:0;"/>
    </g>
    <g>
        <path d="M390.5,163.5C389.833,164.167 389.833,164.167 390.5,163.5Z" style="fill:rgb(5,6,5);fill-opacity:0;"/>
    </g>
    <g>
        <path d="M239.5,167.5C240.833,168.167 240.833,168.167 239.5,167.5Z" style="fill:rgb(13,14,13);fill-opacity:0;"/>
    </g>
    <g>
        <path d="M434.5,168.5C433.833,167.167 433.833,167.167 434.5,168.5Z" style="fill:rgb(12,13,12);fill-opacity:0;"/>
    </g>
    <g>
        <path d="M433.5,168.5C432.833,169.167 432.833,169.167 433.5,168.5Z" style="fill:rgb(16,17,16);fill-opacity:0;"/>
    </g>
    <g>
        <path d="M434.5,168.5C435.833,169.167 435.833,169.167 434.5,168.5Z" style="fill:rgb(9,10,9);fill-opacity:0;"/>
    </g>
    <g>
        <path d="M244.5,171.5C245.833,172.167 245.833,172.167 244.5,171.5Z" style="fill:rgb(13,14,13);fill-opacity:0;"/>
    </g>
    <g>
        <path d="M319.5,171.5C320.833,172.167 320.833,172.167 319.5,171.5Z" style="fill:rgb(6,7,6);fill-opacity:0;"/>
    </g>
    <g>
        <path d="M423.5,172.5C424.833,173.167 424.833,173.167 423.5,172.5Z" style="fill:rgb(13,14,13);fill-opacity:0;"/>
    </g>
    <g>
        <path d="M288.5,173.5C289.833,174.167 289.833,174.167 288.5,173.5Z" style="fill:rgb(2,3,2);fill-opacity:0;"/>
    </g>
    <g>
        <path d="M302.5,173.5C303.833,174.167 303.833,174.167 302.5,173.5Z" style="fill:rgb(10,11,10);fill-opacity:0;"/>
    </g>
    <g>
        <path d="M316.5,174.5C317.833,175.167 317.833,175.167 316.5,174.5Z" style="fill:rgb(10,11,10);fill-opacity:0;"/>
    </g>
    <g>
        <path d="M358.5,174.5C359.833,175.167 359.833,175.167 358.5,174.5Z" style="fill:rgb(11,12,11);fill-opacity:0;"/>
    </g>
    <g>
        <path d="M234.5,175.5C235.833,176.167 235.833,176.167 234.5,175.5Z" style="fill:rgb(14,15,14);fill-opacity:0;"/>
    </g>
    <g>
        <path d="M312.5,175.5C313.833,176.167 313.833,176.167 312.5,175.5Z" style="fill:rgb(10,11,10);fill-opacity:0;"/>
    </g>
    <g>
        <path d="M410.5,175.5C411.833,176.167 411.833,176.167 410.5,175.5Z" style="fill:rgb(11,12,11);fill-opacity:0;"/>
    </g>
    <g>
        <path d="M321.5,176.5C322.833,177.167 322.833,177.167 321.5,176.5Z" style="fill:rgb(7,8,7);fill-opacity:0;"/>
    </g>
    <g>
        <path d="M418.5,176.5C419.833,177.167 419.833,177.167 418.5,176.5Z" style="fill:rgb(2,3,2);fill-opacity:0;"/>
    </g>
    <g>
        <path d="M225.5,177.5C226.833,178.167 226.833,178.167 225.5,177.5Z" style="fill:rgb(14,15,14);fill-opacity:0;"/>
    </g>
    <g>
        <path d="M315.5,177.5C316.833,178.167 316.833,178.167 315.5,177.5Z" style="fill:rgb(11,12,11);fill-opacity:0;"/>
    </g>
    <g>
        <path d="M256.5,179.5C257.833,180.167 257.833,180.167 256.5,179.5Z" style="fill:rgb(2,3,2);fill-opacity:0;"/>
    </g>
    <g>
        <path d="M262.5,179.5C263.833,180.167 263.833,180.167 262.5,179.5Z" style="fill:rgb(19,20,19);fill-opacity:0;"/>
    </g>
    <g>
        <path d="M266.5,179.5C267.833,180.167 267.833,180.167 266.5,179.5Z" style="fill:rgb(10,11,10);fill-opacity:0;"/>
    </g>
    <g>
        <path d="M546.5,179.5C547.833,180.167 547.833,180.167 546.5,179.5Z" style="fill:rgb(20,21,20);fill-opacity:0;"/>
    </g>
    <g>
        <path d="M311.5,181.5C312.833,182.167 312.833,182.167 311.5,181.5Z" style="fill:rgb(10,11,10);fill-opacity:0;"/>
    </g>
    <g>
        <path d="M347.5,181.5C348.833,182.167 348.833,182.167 347.5,181.5Z" style="fill:rgb(11,12,11);fill-opacity:0;"/>
    </g>
    <g>
        <path d="M402.5,183.5C403.833,184.167 403.833,184.167 402.5,183.5Z" style="fill:rgb(10,11,10);fill-opacity:0;"/>
    </g>
    <g>
        <path d="M547.5,183.5C548.833,184.167 548.833,184.167 547.5,183.5Z" style="fill:rgb(19,20,19);fill-opacity:0;"/>
    </g>
    <g>
        <path d="M307.5,184.5C308.773,185.077 308.773,185.743 307.5,186.5C306.537,186.03 306.537,185.363 307.5,184.5Z" style="fill:rgb(10,11,10);fill-opacity:0;"/>
    </g>
    <g>
        <path d="M304.5,185.5C305.833,186.167 305.833,186.167 304.5,185.5Z" style="fill:rgb(10,11,10);fill-opacity:0;"/>
    </g>
    <g>
        <path d="M233.5,186.5C234.239,186.369 234.906,186.536 235.5,187C234.563,187.692 233.897,187.525 233.5,186.5Z" style="fill:rgb(3,3,3);fill-opacity:0.01;"/>
    </g>
    <g>
        <path d="M400.5,186.5C401.833,187.167 401.833,187.167 400.5,186.5Z" style="fill:rgb(11,12,11);fill-opacity:0;"/>
    </g>
    <g>
        <path d="M214.5,187.5C215.833,188.167 215.833,188.167 214.5,187.5Z" style="fill:rgb(7,8,7);fill-opacity:0;"/>
    </g>
    <g>
        <path d="M308.5,188.5C307.833,187.167 307.833,187.167 308.5,188.5Z" style="fill:rgb(3,4,3);fill-opacity:0;"/>
    </g>
    <g>
        <path d="M341.5,187.5C342.833,188.167 342.833,188.167 341.5,187.5Z" style="fill:rgb(4,5,4);fill-opacity:0;"/>
    </g>
    <g>
        <path d="M229.5,188.5C230.833,189.167 230.833,189.167 229.5,188.5Z" style="fill:rgb(2,3,2);fill-opacity:0;"/>
    </g>
    <g>
        <path d="M304.5,188.5C305.833,189.167 305.833,189.167 304.5,188.5Z" style="fill:rgb(6,7,6);fill-opacity:0;"/>
    </g>
    <g>
        <path d="M400.5,188.5C401.833,189.167 401.833,189.167 400.5,188.5Z" style="fill:rgb(2,3,2);fill-opacity:0;"/>
    </g>
    <g>
        <path d="M211.5,190.5C212.833,191.167 212.833,191.167 211.5,190.5Z" style="fill-opacity:0;"/>
    </g>
    <g>
        <path d="M237.5,190.5C238.833,191.167 238.833,191.167 237.5,190.5Z" style="fill:rgb(11,12,11);fill-opacity:0;"/>
    </g>
    <g>
        <path d="M304.5,191.5C303.833,190.167 303.833,190.167 304.5,191.5Z" style="fill:rgb(2,3,2);fill-opacity:0;"/>
    </g>
    <g>
        <path d="M338.5,190.5C339.833,191.167 339.833,191.167 338.5,190.5Z" style="fill:rgb(1,2,1);fill-opacity:0;"/>
    </g>
    <g>
        <path d="M301.5,194.5C300.833,193.167 300.833,193.167 301.5,194.5Z" style="fill:rgb(3,4,3);fill-opacity:0;"/>
    </g>
    <g>
        <path d="M220.5,196.5C220.897,195.475 221.563,195.308 222.5,196C221.906,196.464 221.239,196.631 220.5,196.5Z" style="fill:rgb(6,6,6);fill-opacity:0;"/>
    </g>
    <g>
        <path d="M336.5,196.5C337.833,197.167 337.833,197.167 336.5,196.5Z" style="fill:rgb(6,7,6);fill-opacity:0;"/>
    </g>
    <g>
        <path d="M546.5,196.5C547.833,197.167 547.833,197.167 546.5,196.5Z" style="fill:rgb(4,5,4);fill-opacity:0;"/>
    </g>
    <g>
        <path d="M217.5,197.5C218.239,197.369 218.906,197.536 219.5,198C218.563,198.692 217.897,198.525 217.5,197.5Z" style="fill:rgb(2,2,2);fill-opacity:0;"/>
    </g>
    <g>
        <path d="M220.5,197.5C221.833,198.167 221.833,198.167 220.5,197.5Z" style="fill:rgb(12,13,12);fill-opacity:0;"/>
    </g>
    <g>
        <path d="M335.5,198.5C336.833,199.167 336.833,199.167 335.5,198.5Z" style="fill:rgb(3,4,3);fill-opacity:0;"/>
    </g>
    <g>
        <path d="M547.5,198.5C548.833,199.167 548.833,199.167 547.5,198.5Z" style="fill:rgb(19,20,19);fill-opacity:0;"/>
    </g>
    <g>
        <path d="M200.5,199.5C201.833,200.167 201.833,200.167 200.5,199.5Z" style="fill:rgb(16,17,16);fill-opacity:0;"/>
    </g>
    <g>
        <path d="M332.5,201.5C333.833,202.167 333.833,202.167 332.5,201.5Z" style="fill:rgb(1,2,1);fill-opacity:0;"/>
    </g>
    <g>
        <path d="M288.5,203.5C289.833,204.167 289.833,204.167 288.5,203.5Z" style="fill:rgb(1,2,1);fill-opacity:0;"/>
    </g>
    <g>
        <path d="M333.5,203.5C334.833,204.167 334.833,204.167 333.5,203.5Z" style="fill:rgb(2,3,2);fill-opacity:0;"/>
    </g>
    <g>
        <path d="M281.5,207.5C282.833,208.167 282.833,208.167 281.5,207.5Z" style="fill:rgb(9,10,9);fill-opacity:0;"/>
    </g>
    <g>
        <path d="M329.5,208.5C330.833,209.167 330.833,209.167 329.5,208.5Z" style="fill:rgb(3,4,3);fill-opacity:0;"/>
    </g>
    <g>
        <path d="M214.5,210.5C215.833,211.167 215.833,211.167 214.5,210.5Z" style="fill:rgb(12,13,12);fill-opacity:0;"/>
    </g>
    <g>
        <path d="M333.5,210.5C334.833,211.167 334.833,211.167 333.5,210.5Z" style="fill:rgb(8,9,8);fill-opacity:0;"/>
    </g>
    <g>
        <path d="M279.5,212.5C280.833,213.167 280.833,213.167 279.5,212.5Z" style="fill:rgb(16,17,16);fill-opacity:0;"/>
    </g>
    <g>
        <path d="M282.5,213.5C281.833,212.167 281.833,212.167 282.5,213.5Z" style="fill:rgb(2,3,2);fill-opacity:0;"/>
    </g>
    <g>
        <path d="M334.5,213.5C335.833,214.167 335.833,214.167 334.5,213.5Z" style="fill:rgb(9,10,9);fill-opacity:0;"/>
    </g>
    <g>
        <path d="M331.5,214.5C332.833,215.167 332.833,215.167 331.5,214.5Z" style="fill:rgb(8,9,8);fill-opacity:0;"/>
    </g>
    <g>
        <path d="M279.5,216.5C278.833,215.167 278.833,215.167 279.5,216.5Z" style="fill:rgb(2,3,2);fill-opacity:0.01;"/>
    </g>
    <g>
        <path d="M274.5,216.5C275.833,217.167 275.833,217.167 274.5,216.5Z" style="fill:rgb(8,9,8);fill-opacity:0;"/>
    </g>
    <g>
        <path d="M325.5,216.5C326.833,217.167 326.833,217.167 325.5,216.5Z" style="fill:rgb(2,3,2);fill-opacity:0;"/>
    </g>
    <g>
        <path d="M369.5,216.5C370.833,217.167 370.833,217.167 369.5,216.5Z" style="fill:rgb(8,9,8);fill-opacity:0;"/>
    </g>
    <g>
        <path d="M273.5,219.5C274.833,220.167 274.833,220.167 273.5,219.5Z" style="fill:rgb(9,10,9);fill-opacity:0;"/>
    </g>
    <g>
        <path d="M324.5,219.5C325.833,220.167 325.833,220.167 324.5,219.5Z" style="fill:rgb(3,4,3);fill-opacity:0;"/>
    </g>
    <g>
        <path d="M271.5,222.5C272.833,223.167 272.833,223.167 271.5,222.5Z" style="fill:rgb(22,23,22);fill-opacity:0;"/>
    </g>
    <g>
        <path d="M326.5,224.5C327.833,225.167 327.833,225.167 326.5,224.5Z" style="fill:rgb(7,8,7);fill-opacity:0;"/>
    </g>
    <g>
        <path d="M359.5,224.5C360.833,225.167 360.833,225.167 359.5,224.5Z" style="fill:rgb(7,8,7);fill-opacity:0;"/>
    </g>
    <g>
        <path d="M265.5,226.5C266.833,227.167 266.833,227.167 265.5,226.5Z" style="fill:rgb(7,8,7);fill-opacity:0;"/>
    </g>
    <g>
        <path d="M270.5,228.5C269.833,227.167 269.833,227.167 270.5,228.5Z" style="fill:rgb(2,3,2);fill-opacity:0;"/>
    </g>
    <g>
        <path d="M361.5,227.5C362.833,228.167 362.833,228.167 361.5,227.5Z" style="fill:rgb(7,8,7);fill-opacity:0;"/>
    </g>
    <g>
        <path d="M322.5,228.5C323.833,229.167 323.833,229.167 322.5,228.5Z" style="fill:rgb(7,8,7);fill-opacity:0;"/>
    </g>
    <g>
        <path d="M322.5,229.5C321.833,230.167 321.833,230.167 322.5,229.5Z" style="fill:rgb(4,5,4);fill-opacity:0;"/>
    </g>
    <g>
        <path d="M207.5,230.5C208.833,231.167 208.833,231.167 207.5,230.5Z" style="fill:rgb(15,16,15);fill-opacity:0;"/>
    </g>
    <g>
        <path d="M264.5,236.5C263.833,235.167 263.833,235.167 264.5,236.5Z" style="fill:rgb(0,1,0);fill-opacity:0;"/>
    </g>
    <g>
        <path d="M541.5,236.5C542.833,237.167 542.833,237.167 541.5,236.5Z" style="fill:rgb(17,18,17);fill-opacity:0;"/>
    </g>
    <g>
        <path d="M539.5,237.5C540.833,238.167 540.833,238.167 539.5,237.5Z" style="fill:rgb(24,25,24);fill-opacity:0;"/>
    </g>
    <g>
        <path d="M318.5,240.5C319.833,241.167 319.833,241.167 318.5,240.5Z" style="fill:rgb(9,10,9);fill-opacity:0;"/>
    </g>
    <g>
        <path d="M352.5,243.5C353.833,244.167 353.833,244.167 352.5,243.5Z" style="fill:rgb(5,6,5);fill-opacity:0;"/>
    </g>
    <g>
        <path d="M314.5,245.5C315.833,246.167 315.833,246.167 314.5,245.5Z" style="fill:rgb(4,5,4);fill-opacity:0;"/>
    </g>
    <g>
        <path d="M316.5,245.5C317.833,246.167 317.833,246.167 316.5,245.5Z" style="fill:rgb(22,23,22);fill-opacity:0;"/>
    </g>
    <g>
        <path d="M534.5,247.5C535.833,248.167 535.833,248.167 534.5,247.5Z" style="fill:rgb(8,9,8);fill-opacity:0;"/>
    </g>
    <g>
        <path d="M252.5,248.5C253.833,249.167 253.833,249.167 252.5,248.5Z" style="fill:rgb(6,7,6);fill-opacity:0;"/>
    </g>
    <g>
        <path d="M343.5,249.5C343.897,248.475 344.563,248.308 345.5,249C344.906,249.464 344.239,249.631 343.5,249.5Z" style="fill:rgb(5,6,5);fill-opacity:0;"/>
    </g>
    <g>
        <path d="M315.5,250.5C316.833,251.167 316.833,251.167 315.5,250.5Z" style="fill:rgb(5,6,5);fill-opacity:0;"/>
    </g>
    <g>
        <path d="M249.5,251.5C250.833,252.167 250.833,252.167 249.5,251.5Z" style="fill:rgb(6,7,6);fill-opacity:0;"/>
    </g>
    <g>
        <path d="M345.5,252.5C346.833,253.167 346.833,253.167 345.5,252.5Z" style="fill:rgb(5,6,5);fill-opacity:0;"/>
    </g>
    <g>
        <path d="M247.5,254.5C248.833,255.167 248.833,255.167 247.5,254.5Z" style="fill:rgb(7,8,7);fill-opacity:0;"/>
    </g>
    <g>
        <path d="M311.5,254.5C312.833,255.167 312.833,255.167 311.5,254.5Z" style="fill:rgb(2,3,2);fill-opacity:0;"/>
    </g>
    <g>
        <path d="M314.5,254.5C315.833,255.167 315.833,255.167 314.5,254.5Z" style="fill:rgb(6,7,6);fill-opacity:0;"/>
    </g>
    <g>
        <path d="M345.5,257.5C346.833,258.167 346.833,258.167 345.5,257.5Z" style="fill:rgb(17,18,17);fill-opacity:0;"/>
    </g>
    <g>
        <path d="M249.5,259.5C248.833,258.167 248.833,258.167 249.5,259.5Z" style="fill:rgb(4,5,4);fill-opacity:0;"/>
    </g>
    <g>
        <path d="M310.5,260.5C311.833,261.167 311.833,261.167 310.5,260.5Z" style="fill:rgb(3,4,3);fill-opacity:0;"/>
    </g>
    <g>
        <path d="M309.5,264.5C310.833,265.167 310.833,265.167 309.5,264.5Z" style="fill:rgb(1,2,1);fill-opacity:0;"/>
    </g>
    <g>
        <path d="M241.5,266.5C242.833,267.167 242.833,267.167 241.5,266.5Z" style="fill:rgb(6,7,6);fill-opacity:0;"/>
    </g>
    <g>
        <path d="M526.5,267.5C527.833,268.167 527.833,268.167 526.5,267.5Z" style="fill:rgb(15,16,15);fill-opacity:0;"/>
    </g>
    <g>
        <path d="M308.5,268.5C309.833,269.167 309.833,269.167 308.5,268.5Z" style="fill:rgb(9,10,9);fill-opacity:0;"/>
    </g>
    <g>
        <path d="M522.5,268.5C523.833,269.167 523.833,269.167 522.5,268.5Z" style="fill:rgb(19,20,19);fill-opacity:0;"/>
    </g>
    <g>
        <path d="M520.5,269.5C521.833,270.167 521.833,270.167 520.5,269.5Z" style="fill:rgb(6,7,6);fill-opacity:0;"/>
    </g>
    <g>
        <path d="M308.5,270.5C309.833,271.167 309.833,271.167 308.5,270.5Z" style="fill:rgb(13,14,13);fill-opacity:0;"/>
    </g>
    <g>
        <path d="M340.5,272.5C339.475,272.103 339.308,271.437 340,270.5C340.464,271.094 340.631,271.761 340.5,272.5Z" style="fill:rgb(7,7,7);fill-opacity:0;"/>
    </g>
    <g>
        <path d="M240.5,271.5C241.833,272.167 241.833,272.167 240.5,271.5Z" style="fill:rgb(1,2,1);fill-opacity:0;"/>
    </g>
    <g>
        <path d="M231.5,273.5C232.833,274.167 232.833,274.167 231.5,273.5Z" style="fill:rgb(6,7,6);fill-opacity:0;"/>
    </g>
    <g>
        <path d="M238.5,274.5C239.833,275.167 239.833,275.167 238.5,274.5Z" style="fill:rgb(4,5,4);fill-opacity:0;"/>
    </g>
    <g>
        <path d="M516.5,275.5C517.833,276.167 517.833,276.167 516.5,275.5Z" style="fill:rgb(33,34,33);fill-opacity:0;"/>
    </g>
    <g>
        <path d="M304.5,276.5C305.833,277.167 305.833,277.167 304.5,276.5Z" style="fill:rgb(0,1,0);fill-opacity:0;"/>
    </g>
    <g>
        <path d="M335.5,277.5C336.833,278.167 336.833,278.167 335.5,277.5Z" style="fill:rgb(7,8,7);fill-opacity:0;"/>
    </g>
    <g>
        <path d="M234.5,278.5C235.833,279.167 235.833,279.167 234.5,278.5Z" style="fill:rgb(6,7,6);fill-opacity:0;"/>
    </g>
    <g>
        <path d="M334.5,279.5C335.833,280.167 335.833,280.167 334.5,279.5Z" style="fill:rgb(19,20,19);fill-opacity:0;"/>
    </g>
    <g>
        <path d="M236.5,282.5C235.833,281.167 235.833,281.167 236.5,282.5Z" style="fill:rgb(2,3,2);fill-opacity:0;"/>
    </g>
    <g>
        <path d="M506.5,282.5C507.167,282.5 507.5,282.833 507.5,283.5C507.167,283.167 506.833,282.833 506.5,282.5Z" style="fill:rgb(2,3,2);fill-opacity:0;"/>
    </g>
    <g>
        <path d="M232.5,283.5C233.833,284.167 233.833,284.167 232.5,283.5Z" style="fill:rgb(6,7,6);fill-opacity:0;"/>
    </g>
    <g>
        <path d="M507.5,283.5C508.833,284.167 508.833,284.167 507.5,283.5Z" style="fill:rgb(4,5,4);fill-opacity:0;"/>
    </g>
    <g>
        <path d="M333.5,285.5C332.833,284.167 332.833,284.167 333.5,285.5Z" style="fill:rgb(1,2,1);fill-opacity:0;"/>
    </g>
    <g>
        <path d="M509.5,284.5C510.833,285.167 510.833,285.167 509.5,284.5Z" style="fill:rgb(16,17,16);fill-opacity:0;"/>
    </g>
    <g>
        <path d="M231.5,286.5C232.525,286.897 232.692,287.563 232,288.5C231.536,287.906 231.369,287.239 231.5,286.5Z" style="fill:rgb(6,6,6);fill-opacity:0;"/>
    </g>
    <g>
        <path d="M328.5,289.5C329.833,290.167 329.833,290.167 328.5,289.5Z" style="fill:rgb(5,6,5);fill-opacity:0;"/>
    </g>
    <g>
        <path d="M325.5,295.5C326.833,296.167 326.833,296.167 325.5,295.5Z" style="fill:rgb(5,6,5);fill-opacity:0;"/>
    </g>
    <g>
        <path d="M492.5,295.5C493.833,296.167 493.833,296.167 492.5,295.5Z" style="fill:rgb(2,3,2);fill-opacity:0;"/>
    </g>
    <g>
        <path d="M310.5,297.5C310.897,296.475 311.563,296.308 312.5,297C311.906,297.464 311.239,297.631 310.5,297.5Z" style="fill:rgb(5,6,5);fill-opacity:0;"/>
    </g>
    <g>
        <path d="M194.5,297.5C195.833,298.167 195.833,298.167 194.5,297.5Z" style="fill:rgb(8,9,8);fill-opacity:0;"/>
    </g>
    <g>
        <path d="M199.5,297.5C200.833,298.167 200.833,298.167 199.5,297.5Z" style="fill:rgb(8,9,8);fill-opacity:0;"/>
    </g>
    <g>
        <path d="M194.5,298.5C193.833,299.167 193.833,299.167 194.5,298.5Z" style="fill:rgb(8,9,8);fill-opacity:0;"/>
    </g>
    <g>
        <path d="M316.5,298.5C317.833,299.167 317.833,299.167 316.5,298.5Z" style="fill:rgb(5,6,5);fill-opacity:0;"/>
    </g>
    <g>
        <path d="M485.5,298.5C486.833,299.167 486.833,299.167 485.5,298.5Z" style="fill:rgb(1,2,1);fill-opacity:0;"/>
    </g>
    <g>
        <path d="M474.5,305.5C475.833,306.167 475.833,306.167 474.5,305.5Z" style="fill:rgb(1,2,1);fill-opacity:0;"/>
    </g>
    <g>
        <path d="M478.5,305.5C479.833,306.167 479.833,306.167 478.5,305.5Z" style="fill:rgb(2,3,2);fill-opacity:0;"/>
    </g>
    <g>
        <path d="M474.5,306.5C474.103,307.525 473.437,307.692 472.5,307C473.094,306.536 473.761,306.369 474.5,306.5Z" style="fill:rgb(3,4,3);fill-opacity:0;"/>
    </g>
    <g>
        <path d="M114.5,312.5C115.833,313.167 115.833,313.167 114.5,312.5Z" style="fill:rgb(17,18,17);fill-opacity:0;"/>
    </g>
    <g>
        <path d="M118.5,312.5C119.833,313.167 119.833,313.167 118.5,312.5Z" style="fill:rgb(17,18,17);fill-opacity:0;"/>
    </g>
    <g>
        <path d="M121.5,313.5C122.833,314.167 122.833,314.167 121.5,313.5Z" style="fill:rgb(17,18,17);fill-opacity:0;"/>
    </g>
    <g>
        <path d="M460.5,314.5C461.833,315.167 461.833,315.167 460.5,314.5Z" style="fill:rgb(16,17,16);fill-opacity:0;"/>
    </g>
    <g>
        <path d="M458.5,316.5C459.833,317.167 459.833,317.167 458.5,316.5Z" style="fill:rgb(16,17,16);fill-opacity:0;"/>
    </g>
    <g>
        <path d="M114.5,318.5C113.833,317.167 113.833,317.167 114.5,318.5Z" style="fill:rgb(10,11,10);fill-opacity:0;"/>
    </g>
    <g>
        <path d="M439.5,318.5C440.833,319.167 440.833,319.167 439.5,318.5Z" style="fill:rgb(2,3,2);fill-opacity:0;"/>
    </g>
    <g>
        <path d="M455.5,318.5C456.833,319.167 456.833,319.167 455.5,318.5Z" style="fill:rgb(15,16,15);fill-opacity:0;"/>
    </g>
    <g>
        <path d="M100.5,319.5C101.833,320.167 101.833,320.167 100.5,319.5Z" style="fill:rgb(17,18,17);fill-opacity:0;"/>
    </g>
    <g>
        <path d="M105.5,319.5C106.833,320.167 106.833,320.167 105.5,319.5Z" style="fill:rgb(18,19,18);fill-opacity:0;"/>
    </g>
    <g>
        <path d="M97.5,320.5C98.833,321.167 98.833,321.167 97.5,320.5Z" style="fill:rgb(17,18,17);fill-opacity:0;"/>
    </g>
    <g>
        <path d="M100.5,321.5C101.833,322.167 101.833,322.167 100.5,321.5Z" style="fill:rgb(17,18,17);fill-opacity:0;"/>
    </g>
    <g>
        <path d="M98.5,322.5C99.833,323.167 99.833,323.167 98.5,322.5Z" style="fill:rgb(17,18,17);fill-opacity:0;"/>
    </g>
    <g>
        <path d="M168.5,323.5C166.663,323.361 166.33,322.694 167.5,321.5C168.298,321.957 168.631,322.624 168.5,323.5Z" style="fill:rgb(5,6,5);fill-opacity:0;"/>
    </g>
    <g>
        <path d="M420.5,322.5C421.833,323.167 421.833,323.167 420.5,322.5Z" style="fill-opacity:0;"/>
    </g>
    <g>
        <path d="M425.5,322.5C426.833,323.167 426.833,323.167 425.5,322.5Z" style="fill:rgb(10,11,10);fill-opacity:0;"/>
    </g>
    <g>
        <path d="M337.5,323.5C338.167,323.5 338.5,323.833 338.5,324.5C338.167,324.167 337.833,323.833 337.5,323.5Z" style="fill:rgb(2,3,2);fill-opacity:0;"/>
    </g>
    <g>
        <path d="M339.5,323.5C340.833,324.167 340.833,324.167 339.5,323.5Z" style="fill:rgb(2,3,2);fill-opacity:0;"/>
    </g>
    <g>
        <path d="M414.5,323.5C415.833,324.167 415.833,324.167 414.5,323.5Z" style="fill:rgb(6,7,6);fill-opacity:0;"/>
    </g>
    <g>
        <path d="M430.5,323.5C431.833,324.167 431.833,324.167 430.5,323.5Z" style="fill:rgb(6,7,6);fill-opacity:0;"/>
    </g>
    <g>
        <path d="M338.5,324.5L339.5,324.5C339.315,325.17 338.981,325.17 338.5,324.5Z" style="fill:rgb(11,12,11);fill-opacity:0;"/>
    </g>
    <g>
        <path d="M393.5,324.5C394.833,325.167 394.833,325.167 393.5,324.5Z" style="fill:rgb(21,22,21);fill-opacity:0;"/>
    </g>
    <g>
        <path d="M367.5,326.5C368.833,327.167 368.833,327.167 367.5,326.5Z" style="fill:rgb(5,6,5);fill-opacity:0;"/>
    </g>
    <g>
        <path d="M411.5,326.5C412.833,327.167 412.833,327.167 411.5,326.5Z" style="fill:rgb(7,8,7);fill-opacity:0;"/>
    </g>
    <g>
        <path d="M82.5,328.5C83.833,329.167 83.833,329.167 82.5,328.5Z" style="fill:rgb(16,17,16);fill-opacity:0;"/>
    </g>
    <g>
        <path d="M93.5,329.5C92.833,328.167 92.833,328.167 93.5,329.5Z" style="fill:rgb(3,4,3);fill-opacity:0;"/>
    </g>
    <g>
        <path d="M87.5,329.5C88.833,330.167 88.833,330.167 87.5,329.5Z" style="fill:rgb(15,16,15);fill-opacity:0;"/>
    </g>
    <g>
        <path d="M80.5,330.5C81.833,331.167 81.833,331.167 80.5,330.5Z" style="fill:rgb(16,17,16);fill-opacity:0;"/>
    </g>
    <g>
        <path d="M82.5,334.5C83.833,335.167 83.833,335.167 82.5,334.5Z" style="fill:rgb(29,30,29);fill-opacity:0;"/>
    </g>
    <g>
        <path d="M76.5,335.5C77.833,336.167 77.833,336.167 76.5,335.5Z" style="fill:rgb(15,16,15);fill-opacity:0;"/>
    </g>
    <g>
        <path d="M332.5,335.5C333.833,336.167 333.833,336.167 332.5,335.5Z" style="fill:rgb(5,6,5);fill-opacity:0;"/>
    </g>
    <g>
        <path d="M75.5,339.5C76.833,340.167 76.833,340.167 75.5,339.5Z" style="fill:rgb(15,16,15);fill-opacity:0;"/>
    </g>
    <g>
        <path d="M387.5,339.5C388.833,340.167 388.833,340.167 387.5,339.5Z" style="fill:rgb(3,4,3);fill-opacity:0;"/>
    </g>
    <g>
        <path d="M72.5,344.5C73.833,345.167 73.833,345.167 72.5,344.5Z" style="fill:rgb(17,18,17);fill-opacity:0;"/>
    </g>
    <g>
        <path d="M389.5,349.5C390.833,350.167 390.833,350.167 389.5,349.5Z" style="fill:rgb(6,7,6);fill-opacity:0;"/>
    </g>
    <g>
        <path d="M63.5,353.5C64.833,354.167 64.833,354.167 63.5,353.5Z" style="fill:rgb(15,16,15);fill-opacity:0;"/>
    </g>
    <g>
        <path d="M66.5,354.5C67.833,355.167 67.833,355.167 66.5,354.5Z" style="fill:rgb(9,10,9);fill-opacity:0;"/>
    </g>
    <g>
        <path d="M386.5,356.5C387.833,357.167 387.833,357.167 386.5,356.5Z" style="fill:rgb(15,16,15);fill-opacity:0;"/>
    </g>
    <g>
        <path d="M320.5,357.5C321.833,358.167 321.833,358.167 320.5,357.5Z" style="fill:rgb(3,4,3);fill-opacity:0;"/>
    </g>
    <g>
        <path d="M387.5,358.5C388.833,359.167 388.833,359.167 387.5,358.5Z" style="fill:rgb(7,8,7);fill-opacity:0;"/>
    </g>
    <g>
        <path d="M387.5,359.5C386.833,360.167 386.833,360.167 387.5,359.5Z" style="fill:rgb(7,8,7);fill-opacity:0;"/>
    </g>
    <g>
        <path d="M317.5,362.5C318.833,363.167 318.833,363.167 317.5,362.5Z" style="fill:rgb(1,2,1);fill-opacity:0;"/>
    </g>
    <g>
        <path d="M59.5,363.5C60.833,364.167 60.833,364.167 59.5,363.5Z" style="fill:rgb(15,16,15);fill-opacity:0;"/>
    </g>
    <g>
        <path d="M55.5,367.5C56.833,368.167 56.833,368.167 55.5,367.5Z" style="fill:rgb(15,16,15);fill-opacity:0;"/>
    </g>
    <g>
        <path d="M314.5,367.5C315.833,368.167 315.833,368.167 314.5,367.5Z" style="fill:rgb(1,2,1);fill-opacity:0;"/>
    </g>
    <g>
        <path d="M313.5,369.5C314.833,370.167 314.833,370.167 313.5,369.5Z" style="fill:rgb(1,2,1);fill-opacity:0;"/>
    </g>
    <g>
        <path d="M312.5,372.5C313.833,373.167 313.833,373.167 312.5,372.5Z" style="fill:rgb(1,2,1);fill-opacity:0;"/>
    </g>
    <g>
        <path d="M318.5,374.5C319.833,375.167 319.833,375.167 318.5,374.5Z" style="fill:rgb(6,7,6);fill-opacity:0;"/>
    </g>
    <g>
        <path d="M307.5,381.5C308.833,382.167 308.833,382.167 307.5,381.5Z" style="fill:rgb(4,5,4);fill-opacity:0;"/>
    </g>
    <g>
        <path d="M466.5,384.5C467.833,385.167 467.833,385.167 466.5,384.5Z" style="fill:rgb(16,17,16);fill-opacity:0;"/>
    </g>
    <g>
        <path d="M463.5,385.5C464.833,386.167 464.833,386.167 463.5,385.5Z" style="fill:rgb(15,16,15);fill-opacity:0;"/>
    </g>
    <g>
        <path d="M369.5,388.5C368.833,389.167 368.833,389.167 369.5,388.5Z" style="fill-opacity:0;"/>
    </g>
    <g>
        <path d="M300.5,389.5C301.167,389.5 301.5,389.833 301.5,390.5C301.167,390.167 300.833,389.833 300.5,389.5Z" style="fill:rgb(0,1,0);fill-opacity:0;"/>
    </g>
    <g>
        <path d="M301.5,390.5C302.833,391.167 302.833,391.167 301.5,390.5Z" style="fill:rgb(2,3,2);fill-opacity:0;"/>
    </g>
    <g>
        <path d="M368.5,390.5C369.833,391.167 369.833,391.167 368.5,390.5Z" style="fill:rgb(3,4,3);fill-opacity:0;"/>
    </g>
    <g>
        <path d="M301.5,391.5C300.833,392.167 300.833,392.167 301.5,391.5Z" style="fill:rgb(1,2,1);fill-opacity:0;"/>
    </g>
    <g>
        <path d="M456.5,394.5C456.897,393.475 457.563,393.308 458.5,394C457.906,394.464 457.239,394.631 456.5,394.5Z" style="fill:rgb(16,17,16);fill-opacity:0;"/>
    </g>
    <g>
        <path d="M300.5,395.5C301.833,396.167 301.833,396.167 300.5,395.5Z" style="fill:rgb(7,8,7);fill-opacity:0;"/>
    </g>
    <g>
        <path d="M460.5,395.5C461.833,396.167 461.833,396.167 460.5,395.5Z" style="fill:rgb(10,11,10);fill-opacity:0;"/>
    </g>
    <g>
        <path d="M48.5,396.5C49.525,396.897 49.692,397.563 49,398.5C48.536,397.906 48.369,397.239 48.5,396.5Z" style="fill:rgb(16,17,16);fill-opacity:0;"/>
    </g>
    <g>
        <path d="M297.5,396.5C298.833,397.167 298.833,397.167 297.5,396.5Z" style="fill:rgb(4,5,4);fill-opacity:0;"/>
    </g>
    <g>
        <path d="M294.5,399.5C295.833,400.167 295.833,400.167 294.5,399.5Z" style="fill:rgb(10,11,10);fill-opacity:0;"/>
    </g>
    <g>
        <path d="M383.5,400.5C383.897,399.475 384.563,399.308 385.5,400C384.906,400.464 384.239,400.631 383.5,400.5Z" style="fill-opacity:0;"/>
    </g>
    <g>
        <path d="M457.5,401.5C458.833,402.167 458.833,402.167 457.5,401.5Z" style="fill:rgb(8,9,8);fill-opacity:0;"/>
    </g>
    <g>
        <path d="M368.5,402.5C369.833,403.167 369.833,403.167 368.5,402.5Z" style="fill:rgb(8,9,8);fill-opacity:0;"/>
    </g>
    <g>
        <path d="M290.5,403.5C291.833,404.167 291.833,404.167 290.5,403.5Z" style="fill:rgb(6,7,6);fill-opacity:0;"/>
    </g>
    <g>
        <path d="M294.5,403.5C295.833,404.167 295.833,404.167 294.5,403.5Z" style="fill:rgb(7,8,7);fill-opacity:0;"/>
    </g>
    <g>
        <path d="M368.5,403.5C367.833,404.167 367.833,404.167 368.5,403.5Z" style="fill:rgb(8,9,8);fill-opacity:0;"/>
    </g>
    <g>
        <path d="M466.5,404.5C467.833,405.167 467.833,405.167 466.5,404.5Z" style="fill:rgb(1,2,1);fill-opacity:0;"/>
    </g>
    <g>
        <path d="M292.5,409.5C293.833,410.167 293.833,410.167 292.5,409.5Z" style="fill:rgb(16,17,16);fill-opacity:0;"/>
    </g>
    <g>
        <path d="M385.5,410.5C385.897,409.475 386.563,409.308 387.5,410C386.906,410.464 386.239,410.631 385.5,410.5Z" style="fill:rgb(2,3,2);fill-opacity:0;"/>
    </g>
    <g>
        <path d="M451.5,409.5C452.525,409.897 452.692,410.563 452,411.5C451.536,410.906 451.369,410.239 451.5,409.5Z" style="fill:rgb(17,17,17);fill-opacity:0;"/>
    </g>
    <g>
        <path d="M467.5,411.5C468.833,412.167 468.833,412.167 467.5,411.5Z" style="fill:rgb(15,16,15);fill-opacity:0;"/>
    </g>
    <g>
        <path d="M388.5,417.5C389.833,418.167 389.833,418.167 388.5,417.5Z" style="fill:rgb(6,7,6);fill-opacity:0;"/>
    </g>
    <g>
        <path d="M390.5,418.5C391.833,419.167 391.833,419.167 390.5,418.5Z" style="fill:rgb(11,12,11);fill-opacity:0;"/>
    </g>
    <g>
        <path d="M273.5,421.5C274.833,422.167 274.833,422.167 273.5,421.5Z" style="fill:rgb(2,3,2);fill-opacity:0;"/>
    </g>
    <g>
        <path d="M270.5,423.5C271.833,424.167 271.833,424.167 270.5,423.5Z" style="fill:rgb(0,1,0);fill-opacity:0;"/>
    </g>
    <g>
        <path d="M398.5,423.5C399.833,424.167 399.833,424.167 398.5,423.5Z" style="fill:rgb(11,12,11);fill-opacity:0;"/>
    </g>
    <g>
        <path d="M283.5,424.5C284.833,425.167 284.833,425.167 283.5,424.5Z" style="fill:rgb(24,25,24);fill-opacity:0;"/>
    </g>
    <g>
        <path d="M390.5,424.5C391.833,425.167 391.833,425.167 390.5,424.5Z" style="fill:rgb(2,3,2);fill-opacity:0;"/>
    </g>
    <g>
        <path d="M442.5,424.5C443.833,425.167 443.833,425.167 442.5,424.5Z" style="fill:rgb(16,17,16);fill-opacity:0;"/>
    </g>
    <g>
        <path d="M56.5,425.5C55.833,426.167 55.833,426.167 56.5,425.5Z" style="fill:rgb(2,3,2);fill-opacity:0;"/>
    </g>
    <g>
        <path d="M279.5,425.5C280.833,426.167 280.833,426.167 279.5,425.5Z" style="fill:rgb(9,10,9);fill-opacity:0;"/>
    </g>
    <g>
        <path d="M281.5,427.5C281.897,426.475 282.563,426.308 283.5,427C282.906,427.464 282.239,427.631 281.5,427.5Z" style="fill:rgb(9,10,9);fill-opacity:0;"/>
    </g>
    <g>
        <path d="M302.5,426.5C303.833,427.167 303.833,427.167 302.5,426.5Z" style="fill:rgb(8,9,8);fill-opacity:0;"/>
    </g>
    <g>
        <path d="M391.5,426.5C392.833,427.167 392.833,427.167 391.5,426.5Z" style="fill:rgb(1,2,1);fill-opacity:0;"/>
    </g>
    <g>
        <path d="M300.5,427.5C301.525,427.897 301.692,428.563 301,429.5C300.536,428.906 300.369,428.239 300.5,427.5Z" style="fill:rgb(3,3,3);fill-opacity:0;"/>
    </g>
    <g>
        <path d="M268.5,428.5C269.833,429.167 269.833,429.167 268.5,428.5Z" style="fill:rgb(14,15,14);fill-opacity:0;"/>
    </g>
    <g>
        <path d="M285.5,428.5C286.833,429.167 286.833,429.167 285.5,428.5Z" style="fill:rgb(13,14,13);fill-opacity:0;"/>
    </g>
    <g>
        <path d="M397.5,428.5C398.833,429.167 398.833,429.167 397.5,428.5Z" style="fill:rgb(12,13,12);fill-opacity:0;"/>
    </g>
    <g>
        <path d="M397.5,429.5C396.833,430.167 396.833,430.167 397.5,429.5Z" style="fill:rgb(12,13,12);fill-opacity:0;"/>
    </g>
    <g>
        <path d="M259.5,431.5C260.833,432.167 260.833,432.167 259.5,431.5Z" style="fill:rgb(1,2,1);fill-opacity:0;"/>
    </g>
    <g>
        <path d="M303.5,431.5C304.833,432.167 304.833,432.167 303.5,431.5Z" style="fill:rgb(1,2,1);fill-opacity:0;"/>
    </g>
    <g>
        <path d="M258.5,432.5L259.5,432.5C259.315,433.17 258.981,433.17 258.5,432.5Z" style="fill:rgb(1,2,1);fill-opacity:0;"/>
    </g>
    <g>
        <path d="M426.5,432.5C427.833,433.167 427.833,433.167 426.5,432.5Z" style="fill:rgb(12,13,12);fill-opacity:0;"/>
    </g>
    <g>
        <path d="M434.5,432.5C435.833,433.167 435.833,433.167 434.5,432.5Z" style="fill:rgb(23,24,23);fill-opacity:0;"/>
    </g>
    <g>
        <path d="M256.5,433.5C257.833,434.167 257.833,434.167 256.5,433.5Z" style="fill:rgb(3,4,3);fill-opacity:0;"/>
    </g>
    <g>
        <path d="M305.5,433.5C306.833,434.167 306.833,434.167 305.5,433.5Z" style="fill:rgb(5,6,5);fill-opacity:0;"/>
    </g>
    <g>
        <path d="M262.5,434.5C263.833,435.167 263.833,435.167 262.5,434.5Z" style="fill:rgb(10,11,10);fill-opacity:0;"/>
    </g>
    <g>
        <path d="M294.5,434.5C293.833,435.167 293.833,435.167 294.5,434.5Z" style="fill:rgb(4,5,4);fill-opacity:0;"/>
    </g>
    <g>
        <path d="M57.5,435.5C58.833,436.167 58.833,436.167 57.5,435.5Z" style="fill:rgb(16,17,16);fill-opacity:0;"/>
    </g>
    <g>
        <path d="M423.5,435.5C424.833,436.167 424.833,436.167 423.5,435.5Z" style="fill:rgb(12,13,12);fill-opacity:0;"/>
    </g>
    <g>
        <path d="M451.5,436.5C452.833,437.167 452.833,437.167 451.5,436.5Z" style="fill:rgb(16,17,16);fill-opacity:0;"/>
    </g>
    <g>
        <path d="M454.5,436.5C455.833,437.167 455.833,437.167 454.5,436.5Z" style="fill:rgb(17,18,17);fill-opacity:0;"/>
    </g>
    <g>
        <path d="M61.5,437.5C60.833,438.167 60.833,438.167 61.5,437.5Z" style="fill:rgb(6,7,6);fill-opacity:0;"/>
    </g>
    <g>
        <path d="M250.5,437.5C251.833,438.167 251.833,438.167 250.5,437.5Z" style="fill:rgb(3,4,3);fill-opacity:0;"/>
    </g>
    <g>
        <path d="M258.5,437.5C259.833,438.167 259.833,438.167 258.5,437.5Z" style="fill:rgb(10,11,10);fill-opacity:0;"/>
    </g>
    <g>
        <path d="M297.5,437.5C296.833,438.167 296.833,438.167 297.5,437.5Z" style="fill:rgb(1,2,1);fill-opacity:0;"/>
    </g>
    <g>
        <path d="M384.5,437.5C385.833,438.167 385.833,438.167 384.5,437.5Z" style="fill:rgb(12,13,12);fill-opacity:0;"/>
    </g>
    <g>
        <path d="M404.5,438.5C405.833,439.167 405.833,439.167 404.5,438.5Z" style="fill:rgb(6,7,6);fill-opacity:0;"/>
    </g>
    <g>
        <path d="M452.5,438.5C453.833,439.167 453.833,439.167 452.5,438.5Z" style="fill:rgb(17,18,17);fill-opacity:0;"/>
    </g>
    <g>
        <path d="M442.5,439.5C443.833,440.167 443.833,440.167 442.5,439.5Z" style="fill:rgb(4,5,4);fill-opacity:0;"/>
    </g>
    <g>
        <path d="M245.5,440.5C246.239,440.369 246.906,440.536 247.5,441C246.563,441.692 245.897,441.525 245.5,440.5Z" style="fill:rgb(7,8,7);fill-opacity:0;"/>
    </g>
    <g>
        <path d="M300.5,442.5C301.833,443.167 301.833,443.167 300.5,442.5Z" style="fill:rgb(12,13,12);fill-opacity:0;"/>
    </g>
    <g>
        <path d="M437.5,442.5C438.833,443.167 438.833,443.167 437.5,442.5Z" style="fill:rgb(2,3,2);fill-opacity:0;"/>
    </g>
    <g>
        <path d="M439.5,442.5C440.833,443.167 440.833,443.167 439.5,442.5Z" style="fill:rgb(4,5,4);fill-opacity:0;"/>
    </g>
    <g>
        <path d="M163.5,443.5C164.833,444.167 164.833,444.167 163.5,443.5Z" style="fill:rgb(8,9,8);fill-opacity:0;"/>
    </g>
    <g>
        <path d="M240.5,443.5C241.833,444.167 241.833,444.167 240.5,443.5Z" style="fill:rgb(6,7,6);fill-opacity:0;"/>
    </g>
    <g>
        <path d="M302.5,444.5C302.897,443.475 303.563,443.308 304.5,444C303.906,444.464 303.239,444.631 302.5,444.5Z" style="fill:rgb(5,5,5);fill-opacity:0;"/>
    </g>
    <g>
        <path d="M445.5,443.5C446.833,444.167 446.833,444.167 445.5,443.5Z" style="fill:rgb(16,17,16);fill-opacity:0;"/>
    </g>
    <g>
        <path d="M159.5,446.5C160.833,447.167 160.833,447.167 159.5,446.5Z" style="fill:rgb(1,2,1);fill-opacity:0;"/>
    </g>
    <g>
        <path d="M167.5,446.5C168.833,447.167 168.833,447.167 167.5,446.5Z" style="fill:rgb(11,12,11);fill-opacity:0;"/>
    </g>
    <g>
        <path d="M177.5,446.5C178.833,447.167 178.833,447.167 177.5,446.5Z" style="fill:rgb(15,16,15);fill-opacity:0;"/>
    </g>
    <g>
        <path d="M234.5,446.5C235.833,447.167 235.833,447.167 234.5,446.5Z" style="fill:rgb(10,11,10);fill-opacity:0;"/>
    </g>
    <g>
        <path d="M245.5,446.5C246.833,447.167 246.833,447.167 245.5,446.5Z" style="fill:rgb(10,11,10);fill-opacity:0;"/>
    </g>
    <g>
        <path d="M307.5,446.5C308.833,447.167 308.833,447.167 307.5,446.5Z" style="fill:rgb(9,10,9);fill-opacity:0;"/>
    </g>
    <g>
        <path d="M393.5,446.5C394.833,447.167 394.833,447.167 393.5,446.5Z" style="fill:rgb(13,14,13);fill-opacity:0;"/>
    </g>
    <g>
        <path d="M432.5,446.5C433.833,447.167 433.833,447.167 432.5,446.5Z" style="fill:rgb(10,11,10);fill-opacity:0;"/>
    </g>
    <g>
        <path d="M408.5,448.5C409.833,449.167 409.833,449.167 408.5,448.5Z" style="fill:rgb(1,2,1);fill-opacity:0;"/>
    </g>
    <g>
        <path d="M153.5,450.5C154.833,451.167 154.833,451.167 153.5,450.5Z" style="fill:rgb(1,2,1);fill-opacity:0;"/>
    </g>
    <g>
        <path d="M208.5,450.5C209.833,451.167 209.833,451.167 208.5,450.5Z" style="fill:rgb(15,16,15);fill-opacity:0;"/>
    </g>
    <g>
        <path d="M413.5,451.5C414.833,452.167 414.833,452.167 413.5,451.5Z" style="fill:rgb(13,14,13);fill-opacity:0;"/>
    </g>
    <g>
        <path d="M77.5,458.5C78.833,459.167 78.833,459.167 77.5,458.5Z" style="fill:rgb(2,3,2);fill-opacity:0;"/>
    </g>
    <g>
        <path d="M140.5,458.5C141.833,459.167 141.833,459.167 140.5,458.5Z" style="fill:rgb(3,4,3);fill-opacity:0;"/>
    </g>
    <g>
        <path d="M71.5,459.5C72.833,460.167 72.833,460.167 71.5,459.5Z" style="fill:rgb(15,16,15);fill-opacity:0;"/>
    </g>
    <g>
        <path d="M81.5,460.5C82.833,461.167 82.833,461.167 81.5,460.5Z" style="fill:rgb(6,7,6);fill-opacity:0;"/>
    </g>
    <g>
        <path d="M76.5,461.5C77.833,462.167 77.833,462.167 76.5,461.5Z" style="fill:rgb(16,17,16);fill-opacity:0;"/>
    </g>
    <g>
        <path d="M136.5,461.5C137.833,462.167 137.833,462.167 136.5,461.5Z" style="fill:rgb(5,6,5);fill-opacity:0;"/>
    </g>
    <g>
        <path d="M72.5,462.5C73.833,463.167 73.833,463.167 72.5,462.5Z" style="fill:rgb(16,17,16);fill-opacity:0;"/>
    </g>
    <g>
        <path d="M87.5,462.5C86.833,463.167 86.833,463.167 87.5,462.5Z" style="fill:rgb(6,7,6);fill-opacity:0;"/>
    </g>
    <g>
        <path d="M138.5,462.5C139.833,463.167 139.833,463.167 138.5,462.5Z" style="fill:rgb(13,14,13);fill-opacity:0;"/>
    </g>
    <g>
        <path d="M96.5,466.5C97.833,467.167 97.833,467.167 96.5,466.5Z" style="fill:rgb(4,5,4);fill-opacity:0;"/>
    </g>
    <g>
        <path d="M117.5,466.5C118.833,467.167 118.833,467.167 117.5,466.5Z" style="fill:rgb(2,3,2);fill-opacity:0;"/>
    </g>
    <g>
        <path d="M122.5,466.5C123.833,467.167 123.833,467.167 122.5,466.5Z" style="fill:rgb(7,8,7);fill-opacity:0;"/>
    </g>
    <g>
        <path d="M90.5,470.5C89.833,469.167 89.833,469.167 90.5,470.5Z" style="fill:rgb(16,17,16);fill-opacity:0;"/>
    </g>
    <g>
        <path d="M90.5,470.5C91.833,471.167 91.833,471.167 90.5,470.5Z" style="fill:rgb(16,17,16);fill-opacity:0;"/>
    </g>
    <g>
        <path d="M223.5,559.5C224.833,560.167 224.833,560.167 223.5,559.5Z" style="fill:rgb(74,75,74);fill-opacity:0;"/>
    </g>
    <g>
        <path d="M246.5,559.5C247.833,560.167 247.833,560.167 246.5,559.5Z" style="fill:rgb(72,73,72);fill-opacity:0;"/>
    </g>
    <g>
        <path d="M295.5,559.5C296.833,560.167 296.833,560.167 295.5,559.5Z" style="fill:rgb(65,66,65);fill-opacity:0;"/>
    </g>
    <g>
        <path d="M343.5,559.5C344.833,560.167 344.833,560.167 343.5,559.5Z" style="fill:rgb(62,63,62);fill-opacity:0;"/>
    </g>
    <g>
        <path d="M231.5,560.5C232.833,561.167 232.833,561.167 231.5,560.5Z" style="fill:rgb(72,73,72);fill-opacity:0;"/>
    </g>
    <g>
        <path d="M281.5,560.5C282.833,561.167 282.833,561.167 281.5,560.5Z" style="fill:rgb(71,72,71);fill-opacity:0;"/>
    </g>
    <g>
        <path d="M312.5,560.5C313.833,561.167 313.833,561.167 312.5,560.5Z" style="fill:rgb(67,68,67);fill-opacity:0;"/>
    </g>
    <g>
        <path d="M360.5,560.5C361.833,561.167 361.833,561.167 360.5,560.5Z" style="fill:rgb(62,63,62);fill-opacity:0;"/>
    </g>
    <g>
        <path d="M382.5,560.5C383.833,561.167 383.833,561.167 382.5,560.5Z" style="fill:rgb(59,60,59);fill-opacity:0;"/>
    </g>
    <g>
        <path d="M237.5,561.5C238.833,562.167 238.833,562.167 237.5,561.5Z" style="fill:rgb(73,74,73);fill-opacity:0;"/>
    </g>
    <g>
        <path d="M278.5,561.5C279.833,562.167 279.833,562.167 278.5,561.5Z" style="fill:rgb(68,69,68);fill-opacity:0;"/>
    </g>
    <g>
        <path d="M305.5,561.5C306.833,562.167 306.833,562.167 305.5,561.5Z" style="fill:rgb(64,65,64);fill-opacity:0;"/>
    </g>
    <g>
        <path d="M310.5,561.5C311.833,562.167 311.833,562.167 310.5,561.5Z" style="fill:rgb(67,68,67);fill-opacity:0;"/>
    </g>
    <g>
        <path d="M334.5,561.5C335.833,562.167 335.833,562.167 334.5,561.5Z" style="fill:rgb(63,64,63);fill-opacity:0;"/>
    </g>
    <g>
        <path d="M339.5,561.5C340.833,562.167 340.833,562.167 339.5,561.5Z" style="fill:rgb(65,66,65);fill-opacity:0;"/>
    </g>
    <g>
        <path d="M327.5,562.5C328.833,563.167 328.833,563.167 327.5,562.5Z" style="fill:rgb(66,67,66);fill-opacity:0;"/>
    </g>
    <g>
        <path d="M274.5,564.5C273.833,563.167 273.833,563.167 274.5,564.5Z" style="fill:rgb(51,52,51);fill-opacity:0.01;"/>
    </g>
    <g>
        <path d="M339.5,564.5C338.833,563.167 338.833,563.167 339.5,564.5Z" style="fill:rgb(64,65,64);fill-opacity:0;"/>
    </g>
    <g>
        <path d="M366.5,563.5C367.833,564.167 367.833,564.167 366.5,563.5Z" style="fill:rgb(48,49,48);fill-opacity:0;"/>
    </g>
    <g>
        <path d="M259.5,565.5C258.833,564.167 258.833,564.167 259.5,565.5Z" style="fill:rgb(70,71,70);fill-opacity:0;"/>
    </g>
    <g>
        <path d="M381.5,565.5C382.833,566.167 382.833,566.167 381.5,565.5Z" style="fill:rgb(59,60,59);fill-opacity:0;"/>
    </g>
    <g>
        <path d="M293.5,568.5C294.833,569.167 294.833,569.167 293.5,568.5Z" style="fill:rgb(20,21,20);fill-opacity:0;"/>
    </g>
    <g>
        <path d="M369.5,567.5C370.773,568.077 370.773,568.743 369.5,569.5C368.537,569.03 368.537,568.363 369.5,567.5Z" style="fill:rgb(67,67,67);fill-opacity:0;"/>
    </g>
    <g>
        <path d="M215.5,569.5C216.833,570.167 216.833,570.167 215.5,569.5Z" style="fill:rgb(83,84,83);fill-opacity:0;"/>
    </g>
    <g>
        <path d="M358.5,569.5C359.833,570.167 359.833,570.167 358.5,569.5Z" style="fill:rgb(7,8,7);fill-opacity:0;"/>
    </g>
    <g>
        <path d="M318.5,571.5C319.833,572.167 319.833,572.167 318.5,571.5Z" style="fill:rgb(37,38,37);fill-opacity:0;"/>
    </g>
    <g>
        <path d="M359.5,572.5C358.833,571.167 358.833,571.167 359.5,572.5Z" style="fill:rgb(17,18,17);fill-opacity:0;"/>
    </g>
    <g>
        <path d="M215.5,572.5C216.833,573.167 216.833,573.167 215.5,572.5Z" style="fill:rgb(83,84,83);fill-opacity:0;"/>
    </g>
    <g>
        <path d="M320.5,572.5C321.833,573.167 321.833,573.167 320.5,572.5Z" style="fill:rgb(66,67,66);fill-opacity:0;"/>
    </g>
    <g>
        <path d="M322.5,574.5C323.833,575.167 323.833,575.167 322.5,574.5Z" style="fill:rgb(64,65,64);fill-opacity:0;"/>
    </g>
    <g>
        <path d="M217.5,575.5C218.833,576.167 218.833,576.167 217.5,575.5Z" style="fill:rgb(28,29,28);fill-opacity:0;"/>
    </g>
    <g>
        <path d="M229.5,577.5C230.833,578.167 230.833,578.167 229.5,577.5Z" style="fill:rgb(22,23,22);fill-opacity:0;"/>
    </g>
    <g>
        <path d="M217.5,579.5C218.833,580.167 218.833,580.167 217.5,579.5Z" style="fill:rgb(75,76,75);fill-opacity:0;"/>
    </g>
    <g>
        <path d="M222.5,579.5C223.833,580.167 223.833,580.167 222.5,579.5Z" style="fill:rgb(74,75,74);fill-opacity:0;"/>
    </g>
    <g>
        <path d="M349.5,579.5C350.833,580.167 350.833,580.167 349.5,579.5Z" style="fill:rgb(25,26,25);fill-opacity:0;"/>
    </g>
    <g>
        <path d="M230.5,582.5C230.897,581.475 231.563,581.308 232.5,582C231.906,582.464 231.239,582.631 230.5,582.5Z" style="fill:rgb(76,77,76);fill-opacity:0;"/>
    </g>
    <g>
        <path d="M329.5,581.5C330.833,582.167 330.833,582.167 329.5,581.5Z" style="fill:rgb(63,64,63);fill-opacity:0;"/>
    </g>
    <g>
        <path d="M343.5,581.5C344.833,582.167 344.833,582.167 343.5,581.5Z" style="fill:rgb(17,18,17);fill-opacity:0;"/>
    </g>
</svg>
